<svg xmlns="http://www.w3.org/2000/svg" xmlns:xlink="http://www.w3.org/1999/xlink" version="1.1" x="0px" y="0px" viewBox="0 0 100 125" style="enable-background:new 0 0 100 100;" xml:space="preserve"><g><path d="M100,50c0-27.6-22.4-50-50-50C22.4,0,0,22.4,0,50c0,27.6,22.4,50,50,50C77.6,100,100,77.6,100,50z M3.7,50   C3.7,24.5,24.5,3.7,50,3.7S96.3,24.5,96.3,50c0,25.5-20.8,46.3-46.3,46.3S3.7,75.5,3.7,50z"/><path d="M51.9,74.4V31.9l12.7,12.7c0.7,0.7,1.9,0.7,2.6,0s0.7-1.9,0-2.6L50,24.8L32.8,42c-0.4,0.4-0.5,0.8-0.5,1.3   c0,0.5,0.2,0.9,0.5,1.3c0.7,0.7,1.9,0.7,2.6,0l12.7-12.7v42.5c0,1,0.8,1.9,1.9,1.9S51.9,75.5,51.9,74.4z"/></g><text x="0" y="115" fill="#000000" font-size="5px" font-weight="bold" font-family="'Helvetica Neue', Helvetica, Arial-Unicode, Arial, Sans-serif">Created by Jonathan Gibson</text><text x="0" y="120" fill="#000000" font-size="5px" font-weight="bold" font-family="'Helvetica Neue', Helvetica, Arial-Unicode, Arial, Sans-serif">from the Noun Project</text></svg>